<svg height="512" viewBox="0 0 60 60" width="512" xmlns="http://www.w3.org/2000/svg"><g id="Page-1" fill="none" fill-rule="evenodd"><g id="008---Ship-Wheel" fill="rgb(0,0,0)" fill-rule="nonzero"><circle id="Oval" cx="30" cy="12" r="1"/><path id="Shape" d="m20.008 16.247c.4456245-.3252235.5436888-.9498944.2191552-1.3960216-.3245335-.4461272-.949052-.5451579-1.3956808-.2213151s-.5466258.9482074-.2234744 1.3953367c.1558239.2156062.3911332.3602389.6538713.4019017.2627381.0416627.5312482-.0230787.7461287-.1799017z"/><path id="Shape" d="m13.19 23.487c-.3846691-.1250122-.8067666-.0059892-1.0694603.3015664s-.3142476.7430725-.1306212 1.1034608c.1836265.3603883.5662691.5746718.9694944.5429258.4032252-.031746.7476203-.3032691.8725871-.687953.1706208-.52522-.1168001-1.0893172-.642-1.26z"/><path id="Shape" d="m12.572 34.611c-.3846839.1249668-.656207.4693619-.687953.8725871-.031746.4032253.1825375.7858679.5429258.9694944.3603883.1836264.7959052.1320725 1.1034608-.1306212s.4265786-.6847912.3015664-1.0694603c-.1706828-.5251999-.73478-.8126208-1.26-.642z"/><path id="Shape" d="m18.611 43.974c-.3235293.4468916-.2240071 1.0713727.2224072 1.3955601.4464144.3241874 1.0710415.2255856 1.3958863-.2203506.3248449-.4459362.2271635-1.0707079-.2182935-1.3962095-.2147576-.1569263-.4831846-.2218299-.7459137-.1803562-.2627292.0414736-.4981109.185907-.6540863.4013562z"/><circle id="Oval" cx="30" cy="48" r="1"/><path id="Shape" d="m39.992 43.753c-.445457.3255016-.5431384.9502733-.2182935 1.3962095.3248448.4459362.9494719.544538 1.3958863.2203506.4464143-.3241874.5459365-.9486685.2224072-1.3955601-.1559754-.2154492-.3913571-.3598826-.6540863-.4013562-.2627291-.0414737-.5311561.0234299-.7459137.1803562z"/><path id="Shape" d="m46.81 36.513c.3846691.1250122.8067666.0059892 1.0694603-.3015664s.3142476-.7430725.1306212-1.1034608c-.1836265-.3603883-.5662691-.5746718-.9694944-.5429258-.4032252.031746-.7476203.3032691-.8725871.687953-.1706208.52522.1168001 1.0893172.642 1.26z"/><path id="Shape" d="m47.428 25.389c.3846839-.1249668.656207-.4693619.687953-.8725871.031746-.4032253-.1825375-.7858679-.5429258-.9694944-.3603883-.1836264-.7959052-.1320725-1.1034608.1306212s-.4265786.6847912-.3015664 1.0694603c.1706828.5251999.73478.8126208 1.26.642z"/><path id="Shape" d="m41.389 16.025c.3231514-.4471293.2231544-1.0714939-.2234744-1.3953367s-1.0711473-.2248121-1.3956808.2213151c-.3245336.4461272-.2264693 1.0707981.2191552 1.3960216.2148805.156823.4833906.2215644.7461287.1799017.2627381-.0416628.4980474-.1862955.6538713-.4019017z"/><path id="Shape" d="m30 27c-1.6568542 0-3 1.3431458-3 3s1.3431458 3 3 3 3-1.3431458 3-3-1.3431458-3-3-3zm0 4c-.5522847 0-1-.4477153-1-1s.4477153-1 1-1 1 .4477153 1 1-.4477153 1-1 1z"/><path id="Shape" d="m30 15c-8.2842712 0-15 6.7157288-15 15s6.7157288 15 15 15 15-6.7157288 15-15c-.0093685-8.2803876-6.7196124-14.9906315-15-15zm13 15c0 .338-.025.669-.051 1h-6.029c.1066667-.6624.1066667-1.3376 0-2h6.029c.026.331.051.662.051 1zm-13 5c-2.7614237 0-5-2.2385763-5-5s2.2385763-5 5-5 5 2.2385763 5 5c-.0033061 2.7600532-2.2399468 4.9966939-5 5zm-13-5c0-.338.025-.669.051-1h6.029c-.1066667.6624-.1066667 1.3376 0 2h-6.029c-.026-.331-.051-.662-.051-1zm.363-3c.3210311-1.3482171.8568779-2.6360051 1.587-3.814l3.807 3.814zm5.394 6-3.807 3.814c-.7301221-1.1779949-1.2659689-2.4657829-1.587-3.814zm19.88 0c-.3210311 1.3482171-.8568779 2.6360051-1.587 3.814l-3.807-3.814zm-5.394-6 3.807-3.814c.7301221 1.1779949 1.2659689 2.4657829 1.587 3.814zm2.615-5.451-4.258 4.267c-.4021985-.5369899-.8790101-1.0138015-1.416-1.416l4.267-4.259c.5043482.4326275.974731.9033445 1.407 1.408zm-6.858 1.209v-5.395c1.3482763.3208486 2.6360928.8567072 3.814 1.587zm-2-5.707v6.029c-.6624-.1066667-1.3376-.1066667-2 0v-6.029c.331-.026.662-.051 1-.051s.669.025 1 .051zm-4 5.707-3.814-3.808c1.1779072-.7302928 2.4657237-1.2661514 3.814-1.587zm-5.451-2.616 4.267 4.258c-.5369899.4021985-1.0138015.8790101-1.416 1.416l-4.26-4.267c.432947-.5043862.9039993-.9747699 1.409-1.407zm-1.407 18.309 4.26-4.267c.4015867.5368502.877718 1.0136549 1.414 1.416l-4.267 4.259c-.5043482-.4326275-.974731-.9033445-1.407-1.408zm6.858-1.209v5.4c-1.3482763-.3208486-2.6360928-.8567072-3.814-1.587zm2 5.707v-6.029c.6624.1066667 1.3376.1066667 2 0v6.029c-.331.026-.662.051-1 .051s-.669-.025-1-.051zm4-5.707 3.814 3.808c-1.1779072.7302928-2.4657237 1.2661514-3.814 1.587zm5.451 2.616-4.267-4.258c.5369899-.4021985 1.0138015-.8790101 1.416-1.416l4.26 4.267c-.432947.5043862-.9039993.9747699-1.409 1.407z"/><path id="Shape" d="m57 27h-4.2c-.5245954-4.0025295-2.0984821-7.7951065-4.562-10.993l2.977-2.978c1.1640224-1.1744406 1.1640224-3.06755944 0-4.242-1.1882771-1.12990652-3.0537229-1.12990652-4.242 0l-2.978 2.977c-3.1982514-2.4645577-6.9915767-4.0391586-10.995-4.564v-4.2c.0064333-.79208511-.3089855-1.55284344-.874-2.108-.5579289-.57399851-1.3255361-.89606134-2.126-.892-1.6568542 0-3 1.34314575-3 3v4.2c-4.0025295.52459542-7.7951065 2.0984821-10.993 4.562l-2.977-2.974c-.5461189-.55530873-1.2911568-.8698803-2.07-.874h-.078c-.7869893-.00092097-1.54153966.31350505-2.095.873-1.17114581 1.17149955-1.17114581 3.0705004 0 4.242l2.977 2.978c-2.46423402 3.1976817-4.03881781 6.9902758-4.564 10.993h-4.2c-.79169411-.0059317-1.55195434.3094302-2.107.874-.5752473.5571583-.89784564 1.3251808-.893 2.126 0 .7956495.31607052 1.5587112.87867966 2.1213203.56260913.5626092 1.32567087.8786797 2.12132034.8786797h4.2c.52459542 4.0025295 2.0984821 7.7951065 4.562 10.993l-2.975 2.978c-1.16402243 1.1744406-1.16402243 3.0675594 0 4.242 1.17286455 1.1678451 3.0691355 1.1678451 4.242 0l2.978-2.977c3.1976817 2.464234 6.9902758 4.0388178 10.993 4.564v4.2c.0082058 1.6534434 1.3465566 2.9917942 3 3 1.6568542 0 3-1.3431458 3-3v-4.2c4.0025295-.5245954 7.7951065-2.0984821 10.993-4.562l2.977 2.976c.5461189.5553087 1.2911568.8698803 2.07.874h.078c.7869893.000921 1.5415397-.313505 2.095-.873 1.1711458-1.1714996 1.1711458-3.0705004 0-4.242l-2.977-2.978c2.4645577-3.1982514 4.0391586-6.9915767 4.564-10.995h4.2c1.6529917-.0092882 2.9907118-1.3470083 3-3 0-1.6568542-1.3431458-3-3-3zm-8.615-16.8c.3966954-.3751231 1.0173046-.3751231 1.414 0 .1909492.1900959.2948182.4506732.287.72.0026577.2607303-.1009651.5113026-.287.694l-2.853 2.853c-.4513333-.4906667-.9226667-.962-1.414-1.414zm-19.385-7.2c0-.55228475.4477153-1 1-1 .2696918-.00067119.5276905.11005477.713.306.1854514.18309032.2889672.4334037.287.694v4.025c-.332-.014-.665-.025-1-.025s-.668.011-1 .025zm-18.8 8.615c-.39038194-.3904999-.39038194-1.0235001 0-1.414.186212-.1875298.4407556-.29115256.705-.287h.028c.2558783.00111667.5006992.1044455.68.287l2.853 2.853c-.4906667.4513333-.962.9226667-1.414 1.414zm-7.2 19.385c-.55228475 0-1-.4477153-1-1-.00039544-.2693445.11030803-.526929.306-.712.18239634-.1865985.43307757-.2906276.694-.288h4.025c-.014.332-.025.665-.025 1s.011.668.025 1zm8.615 18.8c-.3966954.3751231-1.0173046.3751231-1.414 0-.1909492-.1900959-.2948182-.4506732-.287-.72-.00265772-.2607303.1009651-.5113026.287-.694l2.853-2.853c.4513333.4913333.9226667.9626667 1.414 1.414zm19.385 7.2c0 .5522847-.4477153 1-1 1-.2696918.0006712-.5276905-.1100548-.713-.306-.1854514-.1830903-.2889672-.4334037-.287-.694v-4.025c.332.014.665.025 1 .025s.668-.011 1-.025zm18.8-8.615c.3903819.3904999.3903819 1.0235001 0 1.414-.1924024.187426-.4514229.2906744-.72.287-.2580433-.0090036-.5041476-.1109256-.693-.287l-2.853-2.853c.4913333-.4513333.9626667-.9226667 1.414-1.414zm-19.8 2.615c-11.5979797 0-21-9.4020203-21-21s9.4020203-21 21-21 21 9.4020203 21 21c-.0132259 11.592497-9.407503 20.9867741-21 21zm27.694-20.288c-.1823963.1865985-.4330776.2906276-.694.288h-4.025c.014-.332.025-.665.025-1s-.011-.668-.025-1h4.025c.5522847 0 1 .4477153 1 1 .0003954.2693445-.110308.526929-.306.712z"/></g></g></svg>