<svg height="512" viewBox="0 0 60 60" width="512" xmlns="http://www.w3.org/2000/svg"><g id="Page-1" fill="none" fill-rule="evenodd"><g id="005---Porthole" fill="rgb(0,0,0)" fill-rule="nonzero"><path id="Shape" d="m30 10c-11.045695 0-20 8.954305-20 20s8.954305 20 20 20 20-8.954305 20-20c-.0126747-11.0404407-8.9595593-19.9873253-20-20zm14.958 30c-1.3149292-.013301-2.5393267-.6720456-3.275-1.762-.3730543-.5657075-1.0053611-.90615-1.683-.90615s-1.3099457.3404425-1.683.90615c-.7434682 1.1031409-1.9867125 1.7644886-3.317 1.7644886s-2.5735318-.6613477-3.317-1.7644886c-.3730543-.5657075-1.0053611-.90615-1.683-.90615s-1.3099457.3404425-1.683.90615c-.7434682 1.1031409-1.9867125 1.7644886-3.317 1.7644886s-2.5735318-.6613477-3.317-1.7644886c-.3730543-.5657075-1.0053611-.90615-1.683-.90615s-1.3099457.3404425-1.683.90615c-.7356733 1.0899544-1.9600708 1.748699-3.275 1.762-1.5497665-2.3155675-2.5370124-4.9612356-2.883-7.726.8722728.473518 1.8484931.7229851 2.841.726 2.0063493-.0105567 3.8817607-.9978903 5.026-2.646 1.115072 1.6539923 2.9792379 2.6456655 4.974 2.646 2.0063493-.0105567 3.8817607-.9978903 5.026-2.646 1.115072 1.6539923 2.9792379 2.6456655 4.974 2.646 2.0063493-.0105567 3.8817607-.9978903 5.026-2.646 1.7171877 2.5639697 5.1062538 3.3952992 7.815 1.917-.3457144 2.7657604-1.3329635 5.4124647-2.883 7.729zm-14.958-28c9.7882437.0141022 17.7734085 7.8429477 17.981 17.629-.8101117.9369537-2.0114459 1.4416269-3.2476442 1.3643154-1.2361982-.0773114-2.3652935-.7277289-3.0523558-1.7583154-.3730543-.5657075-1.0053611-.90615-1.683-.90615s-1.3099457.3404425-1.683.90615c-.7434682 1.1031409-1.9867125 1.7644886-3.317 1.7644886s-2.5735318-.6613477-3.317-1.7644886c-.3730543-.5657075-1.0053611-.90615-1.683-.90615s-1.3099457.3404425-1.683.90615c-.7434682 1.1031409-1.9867125 1.7644886-3.317 1.7644886s-2.5735318-.6613477-3.317-1.7644886c-.3730543-.5657075-1.0053611-.90615-1.683-.90615s-1.3099457.3404425-1.683.90615c-.6870623 1.0305865-1.8161576 1.681004-3.0523558 1.7583154-1.2361983.0773115-2.4375325-.4273617-3.2476442-1.3643154.2076273-9.7876048 8.1952005-17.6170698 17.985-17.629zm0 36c-5.195731-.0027692-10.1353053-2.2569835-13.542-6.18 1.4465366-.3676081 2.7128105-1.242785 3.568-2.466 1.115072 1.6539923 2.9792379 2.6456655 4.974 2.646 2.0063493-.0105567 3.8817607-.9978903 5.026-2.646 1.115072 1.6539923 2.9792379 2.6456655 4.974 2.646 2.0063493-.0105567 3.8817607-.9978903 5.026-2.646.8276035 1.2276492 2.0798874 2.1059574 3.516 2.466-3.4066947 3.9230165-8.346269 6.1772308-13.542 6.18z"/><path id="Shape" d="m51.213 8.787c-.045-.044-.1-.076-.144-.118-11.6738487-11.56463245-30.4873847-11.55793772-42.153.015-.041.037-.089.064-.129.1s-.076.1-.118.144c-11.55887405 11.6679641-11.55887405 30.4700359 0 42.138.042.046.074.1.118.144s.1.076.144.118c11.6679641 11.5588741 30.4700359 11.5588741 42.138 0 .046-.042.1-.074.144-.118s.076-.1.118-.144c11.5588741-11.6679641 11.5588741-30.4700359 0-42.138-.042-.043-.074-.096-.118-.141zm-1.534 41.113c-.7985397.6548862-1.9599361.6119986-2.708-.1-.7768584-.763463-.8029685-2.0072083-.0588354-2.8026017s1.9868605-.8520732 2.8003081-.1277199c.8134476.7243532.9006629 1.9653116.1965273 2.7963216zm-39.588-.231c-.69140812-.8277441-.59934412-2.0552198.2078002-2.7705683.8071442-.7153486 2.0367893-.6592654 2.7754649.1265869.7386756.7858522.7186213 2.0166122-.0452651 2.7779814-.7480639.7119986-1.9094603.7548862-2.708.1zm.244-39.574c.8179003-.68643861 2.0312801-.60717513 2.7529281.1798338.7216481.7870089.6956749 2.0026974-.0589281 2.7581662-.791167.755814-2.036833.755814-2.828 0-.73673275-.730131-.784731-1.9052155-.11-2.693.081-.087.162-.168.244-.249zm19.665 41.905c-12.1502645 0-22-9.8497355-22-22s9.8497355-22 22-22 22 9.8497355 22 22c-.0137772 12.1445532-9.8554468 21.9862228-22 22zm14.459-41.141c-3.2574492-2.46965093-7.0941364-4.06210166-11.143-4.625.8103717-1.1862015.9085458-2.72017178.256-4 4.9266394.63143522 9.5948451 2.56866634 13.521 5.611-1.3614476.44989555-2.3705312 1.60455693-2.634 3.014zm-12.459-6.859c0 1.1045695-.8954305 2-2 2s-2-.8954305-2-2 .8954305-2 2-2 2 .8954305 2 2zm-5.316 2.234c-4.0488636.56289834-7.8855508 2.15534907-11.143 4.625-.1488622-.7859553-.5323779-1.50835937-1.1-2.072-.4385435-.42848934-.9740443-.74478126-1.561-.922 3.9317695-3.05341776 8.6100866-4.99719151 13.548-5.629-.6525458 1.27982822-.5543717 2.8137985.256 4zm-17.9 8.209c.56364063.5676221 1.2860447.9511378 2.072 1.1-2.46826459 3.2571831-4.05965632 7.0931189-4.622 11.141-1.1862015-.8103717-2.72017178-.9085458-4-.256.63143522-4.9266394 2.56866634-9.5948451 5.611-13.521.1921569.5774164.51445304 1.1029439.942 1.536zm-4.784 13.557c1.1045695 0 2 .8954305 2 2s-.8954305 2-2 2-2-.8954305-2-2 .8954305-2 2-2zm0 6c.7964086.0011801 1.57477198-.2371371 2.234-.684.5651003 4.062078 2.16649826 7.9102545 4.65 11.174-.7932434.1307194-1.52670686.5033887-2.1 1.067-.42754696.4330561-.7498431.9585836-.942 1.536-3.04054237-3.9266903-4.97602908-8.5948523-5.606-13.521.54682801.2775995 1.15075666.424131 1.764.428zm10.443 17.213c.5676221-.5636406.9511378-1.2860447 1.1-2.072 3.2574492 2.4696509 7.0941364 4.0621017 11.143 4.625-.8103717 1.1862015-.9085458 2.7201718-.256 4-4.9264427-.6308495-9.5946309-2.5673829-13.521-5.609.5768898-.1930151 1.1017228-.5159893 1.534-.944zm13.557 4.787c0-1.1045695.8954305-2 2-2s2 .8954305 2 2-.8954305 2-2 2-2-.8954305-2-2zm5.316-2.234c4.0488636-.5628983 7.8855508-2.1553491 11.143-4.625.262665 1.4098327 1.2720586 2.5648488 2.634 3.014-3.9263691 3.0416171-8.5945573 4.9781505-13.521 5.609.6525458-1.2798282.5543717-2.8137985-.256-4zm17.9-8.209c-.5639047-.5672663-1.2861916-.9507197-2.072-1.1 2.4696509-3.2574492 4.0621017-7.0941364 4.625-11.143 1.1862015.8103717 2.7201718.9085458 4 .256-.6308495 4.9264427-2.5673829 9.5946309-5.609 13.521-.193889-.5771725-.5179046-1.1020298-.947-1.534zm4.784-13.557c-1.1045695 0-2-.8954305-2-2s.8954305-2 2-2 2 .8954305 2 2-.8954305 2-2 2zm0-6c-.7964086-.0011801-1.574772.2371371-2.234.684-.5628983-4.0488636-2.1553491-7.8855508-4.625-11.143 1.4094431-.2634688 2.5641044-1.2725524 3.014-2.634 3.0416171 3.9263691 4.9781505 8.5945573 5.609 13.521-.546828-.2775995-1.1507567-.424131-1.764-.428zm-5.615-14.385c.0014371.5306972-.2095879 1.0398938-.586 1.414-.791167.755814-2.036833.755814-2.828 0-.7652462-.7531484-.7967363-1.9770038-.0712343-2.7685094.7255019-.7915056 1.9474674-.86643113 2.7642343-.1694906.083.081.164.162.245.245.3056779.3561846.4744365.8096345.476 1.279z"/></g></g></svg>