<svg height="512" viewBox="0 0 60 60" width="512" xmlns="http://www.w3.org/2000/svg"><g id="Page-1" fill="none" fill-rule="evenodd"><g id="041---Message-In-A-Bottle" fill="rgb(0,0,0)" fill-rule="nonzero"><path id="Shape" d="m1.267 50.036c-.34440403-.0953899-.71353641.0002035-.96834852.2507712-.25481211.2505677-.35659194.6180424-.26700001.964.08959194.3459576.35694449.6178389.70134853.7132288l4.844 1.336c3.33563331.9356212 6.8643667.9356212 10.2 0 2.985919-.8384856 6.145081-.8384856 9.131 0 3.3355837.9359815 6.8644163.9359815 10.2 0 2.9852344-.8385239 6.1437656-.8385239 9.129 0 3.3353919.9373741 6.8646081.9373741 10.2 0l4.83-1.337c.344404-.0953899.6117566-.3672712.7013485-.7132288s-.0121879-.7134323-.267-.964-.6239445-.3461611-.9683485-.2507712l-4.833 1.338c-2.9859118.8410008-6.1460882.8410008-9.132 0-.626-.173-1.255-.3-1.885-.413l4.805-16.7c.8671791-3.0161524-.1074046-6.2608556-2.493-8.3l-4.295-3.66c-.595695-.512007-.8419517-1.3220826-.632-2.079l2.164-7.6.958.275c.5096339.1477444 1.0571294.0863759 1.5214057-.1705337.4642764-.2569096.8070785-.6881916.9525943-1.1984663l.552-1.922c.3053976-1.06148949-.3075187-2.16957403-1.369-2.475l-.961-.277.552-1.921c.4577381-1.59222494-.4618295-3.25407257-2.054-3.712l-3.84-1.104c-1.5921197-.45411383-3.2517136.46465381-3.712 2.055l-.553 1.922-.96-.276c-.5100158-.14692406-1.0575172-.08509693-1.5219238.17186473-.4644066.25696165-.8076288.68798239-.9540762 1.19813527l-.553 1.922c-.3046812 1.06147086.3086215 2.16899714 1.37 2.474l.962.276-.277.961c-.007.025-.007.049-.013.074l-1.861 6.564c-.2252853.7519534-.8609245 1.3087205-1.636 1.433l-5.58.82c-3.1029613.4590958-5.6526186 2.686724-6.524 5.7l-7.774 26.515c-1.03006403-.0918934-2.04981373-.2759638-3.047-.55zm24.171 1.337c-1.2369768-.3439586-2.5053174-.5630539-3.786-.654 1.7320681-2.8754231 3.1192983-5.9449176 4.133-9.145.8651296.5501867 1.8094057.9646565 2.8 1.229.9302426.2836799 1.8955989.4358211 2.868.452.06 0 .1-.008.161-.01-.7348805 2.864196-1.1807766 5.794849-1.331 8.748-1.6364102.0273691-3.2682123-.1814477-4.845-.62zm9.081-9.551c.2299118-.0690169.4689681-.1027343.709-.1.308359.001952.6149534.0467128.911.133 1.174.337 1.759 1.122 1.647 1.513s-1.025.747-2.2.409-1.753-1.115-1.646-1.508v-.01c.115878-.2266617.3292534-.3877066.579-.437zm-2.34-.636c-1.024235.1354678-2.0659154.0328055-3.044-.3-1.0058783-.2346504-1.9437262-.6991246-2.74-1.357.9120649-3.2375921 1.4505693-6.5689381 1.605-9.929 2.4515598 1.4344914 5.2221498 2.2349757 8.061 2.329h.031c-1.6511318 2.927306-2.9639047 6.0329382-3.913 9.257zm.272-11.837c-2.656-.764-4.093-1.833-4.442-2.318.553-.225 2.339-.367 4.994.395s4.093 1.832 4.442 2.317c-.554.226-2.339.368-4.994-.394zm2.013-17.94.283-1 5.763 1.661-.276.96c-.1521024.5295769-.7039205.8363412-1.234.686l-3.848-1.106c-.5140934-.151313-.8175212-.6809885-.688-1.201zm2.49-8.685c.1552974-.52851414.7064409-.83416042 1.237-.686l3.844 1.106c.5306892.15250143.8373406.70626457.685 1.237l-.552 1.919-5.768-1.654zm-3.989 3.015 11.535 3.315-.552 1.923-1.921-.553-7.688-2.21-1.922-.553zm-14.114 20.228c.6539519-2.2610115 2.5667784-3.9327319 4.895-4.278l5.587-.821c1.5462052-.243128 2.8145344-1.3542295 3.259-2.855l1.108-3.924c.272438.1980827.5768591.3479256.9.443l3.844 1.106c.2688625.0773714.5472263.1167529.827.117.067 0 .132-.012.2-.016l-1.12 3.937c-.4235899 1.5069768.0633412 3.1229331 1.249 4.145l4.3 3.66c1.7879005 1.5276076 2.5185661 3.9588591 1.869 6.219l-4.892 17.012c-2.124591-.1350379-4.2567518.0887595-6.307.662-.7479732.2078943-1.5090016.3655788-2.278.472.1334765-2.3684309.4680139-4.721232 1-7.033.5173052.4041733 1.1077769.7046721 1.739.885.4756903.1387563.9684891.2101179 1.464.212 1.3951303.1323499 2.7074211-.6814421 3.209-1.99.464-1.616-.86-3.368-3.016-3.988-.6327697-.1827977-1.2947257-.2425435-1.95-.176 1.0327979-3.044946 2.4466913-5.946989 4.208-8.637.2375206-.2152306.4106163-.4921838.5-.8.2-.679.06-1.741-1.693-2.945-1.2942492-.8368839-2.7099143-1.4689917-4.197-1.874-3.349-.963-6.984-1.041-7.556.949-.0840089.3015924-.0840089.6204076 0 .922.0767855 4.105276-.4869855 8.1974232-1.671 12.129-1.0846321 3.9774766-2.7899246 7.7589535-5.053 11.205-1.3675861.0776131-2.7229551.3012171-4.043.667-1.3076865.3600268-2.6533684.5641113-4.009.608z"/><path id="Shape" d="m.733 57.964 4.844 1.336c3.33563331.9356212 6.8643667.9356212 10.2 0 2.985919-.8384856 6.145081-.8384856 9.131 0 3.3355837.9359815 6.8644163.9359815 10.2 0 2.9852344-.8385239 6.1437656-.8385239 9.129 0 3.3353919.9373741 6.8646081.9373741 10.2 0l4.83-1.337c.5324025-.14746.84446-.6985975.697-1.231s-.6985975-.84446-1.231-.697l-4.833 1.338c-2.9859118.8410008-6.1460882.8410008-9.132 0-3.335605-.935827-6.864395-.935827-10.2 0-2.9861902.8389825-6.1458098.8389825-9.132 0-3.3356404-.9355697-6.8643596-.9355697-10.2 0-2.9835423.8360118-6.13945772.8360118-9.123 0l-4.843-1.34c-.34440403-.0953899-.71353641.0002035-.96834852.2507712-.25481211.2505677-.35659194.6180424-.26700001.964.08959194.3459576.35694449.6178389.70134853.7132288z"/></g></g></svg>