<?xml version="1.0" encoding="iso-8859-1"?>
<!-- Generator: Adobe Illustrator 19.0.0, SVG Export Plug-In . SVG Version: 6.00 Build 0)  -->
<svg version="1.1" id="Capa_1" xmlns="http://www.w3.org/2000/svg" xmlns:xlink="http://www.w3.org/1999/xlink" x="0px" y="0px"
	 viewBox="0 0 511.999 511.999" style="enable-background:new 0 0 511.999 511.999;" xml:space="preserve">
<g>
	<g>
		<path d="M508.022,335.819c-25.949-13.85-52.133-43.902-52.133-79.82s26.184-65.97,52.133-79.82
			c2.799-1.494,4.358-4.585,3.897-7.724c-0.462-3.139-2.847-5.65-5.958-6.273c-6.594-1.322-19.877-1.87-25.524-1.87
			c-46.555,0-85.445,33.422-93.951,77.531c-10.866-11.344-29.216-27.943-55.217-42.952c-3.595-2.077-8.19-0.843-10.265,2.75
			c-2.075,3.595-0.843,8.191,2.751,10.265c31.479,18.173,51.237,39.14,58.858,48.093c-6.276,7.379-20.769,22.9-43.215,38.246
			c-28.298,19.349-75.472,42.411-139.508,42.411c-26.868,0-50.756-4.069-71.539-10.211c15.376-14.172,25.723-33.062,29.433-53.528
			c4.928,3.638,11.092,6.627,18.057,6.627c16.802,0,28.955-17.375,30.285-19.356c1.702-2.534,1.702-5.845,0-8.379
			c-1.33-1.982-13.483-19.357-30.284-19.357c-6.968,0-13.131,2.99-18.059,6.629c-3.712-20.462-14.06-39.359-29.433-53.529
			c20.783-6.142,44.67-10.211,71.54-10.211c32.428,0,63.539,5.837,92.468,17.352c3.859,1.533,8.226-0.348,9.761-4.203
			c1.535-3.857-0.347-8.226-4.203-9.761c-18.959-7.546-38.788-12.787-59.267-15.699c-4.043-25.328,21.603-45.107,21.86-45.301
			c2.588-1.941,3.643-5.32,2.62-8.388c-1.023-3.069-3.895-5.138-7.129-5.138c-40.285,0-61.954,16.818-73.04,30.926
			c-8.221,10.462-11.939,20.971-13.512,26.862c-52.844,5.892-92.642,26.229-118.096,43.728
			c-32.748,22.515-49.228,44.916-49.913,45.86c-1.917,2.635-1.917,6.204,0,8.839c0.685,0.943,17.166,23.345,49.913,45.86
			c25.454,17.499,65.251,37.836,118.096,43.728c1.573,5.891,5.291,16.4,13.512,26.862c11.085,14.108,32.755,30.925,73.04,30.925
			c3.234,0,6.106-2.069,7.129-5.138s-0.033-6.449-2.62-8.388c-0.271-0.202-25.981-19.842-21.858-45.336
			c48.712-6.99,85.679-26.089,109.778-42.655c17.102-11.758,29.759-23.479,38.055-32.135c8.502,44.114,47.395,77.542,93.954,77.542
			c5.647,0,18.93-0.548,25.524-1.87c2.978-0.597,5.359-3.012,5.913-5.998C512.463,340.635,510.88,337.344,508.022,335.819z
			 M175.842,247.482c5.248,0,10.794,4.632,14.41,8.533c-3.595,3.897-9.113,8.501-14.41,8.501c-5.246,0-10.79-4.628-14.409-8.534
			C165.028,252.087,170.546,247.482,175.842,247.482z M236.668,120.848c-7.328,9.623-14.421,23.291-13.45,39.464h-37.509
			C190.311,148.15,203.04,126.852,236.668,120.848z M111.599,320.835c-20.979-7.89-38.123-17.635-51.218-26.588
			c-22.453-15.35-36.945-30.873-43.217-38.248c6.276-7.378,20.769-22.899,43.217-38.248c13.096-8.953,30.241-18.699,51.221-26.589
			c20.463,15.171,32.678,39.4,32.678,64.835c0,0.001,0,0.002,0,0.003C144.28,281.449,132.067,305.659,111.599,320.835z
			 M185.707,351.686h37.509c-0.97,16.173,6.122,29.841,13.45,39.464C203.039,385.146,190.309,363.848,185.707,351.686z
			 M480.437,336.657c-44.475,0-80.658-36.183-80.658-80.658s36.183-80.658,80.658-80.658c0.594,0,1.245,0.006,1.941,0.018
			c-22.669,18.504-41.518,47.33-41.518,80.639s18.849,62.135,41.518,80.639C481.683,336.651,481.031,336.657,480.437,336.657z"/>
	</g>
</g>
<g>
	<g>
		<circle cx="80.155" cy="239.968" r="7.515"/>
	</g>
</g>
<g>
</g>
<g>
</g>
<g>
</g>
<g>
</g>
<g>
</g>
<g>
</g>
<g>
</g>
<g>
</g>
<g>
</g>
<g>
</g>
<g>
</g>
<g>
</g>
<g>
</g>
<g>
</g>
<g>
</g>
</svg>
