<?xml version="1.0"?>
<svg xmlns="http://www.w3.org/2000/svg" viewBox="0 0 64 64" width="512" height="512"><g id="outline"><path d="M6.2,57.6C7.376,59.168,9.6,61,12,61H51c3.108,0,6.208-2.18,7.9-5.553l.024-.053,3-7A1,1,0,0,0,60.932,47L48,47.894V45a1,1,0,0,0-1-1H35V42H54a1,1,0,0,0,.848-1.53L35,8.714V7a3,3,0,0,0-6,0V8.714L9.152,40.47A1,1,0,0,0,10,42H29v2H21a1,1,0,0,0-.948.684L18.3,49.943,2.932,51a1,1,0,0,0-.713,1.623ZM35,12.487,52.2,40H35ZM57.093,54.579C56.062,56.624,53.854,59,51,59H12c-1.432,0-3-1.158-3.988-2.343L57.67,53.232ZM31,7a1,1,0,0,1,2,0V44H31ZM11.805,40,29,12.487V20H27v2h2v3H27v2h2v3H27v2h2v3H27v2h2v3Zm9.916,6H46v2.032L20.456,49.793Zm37.716,3.11-.882,2.057L6.487,54.757,4.974,52.866Z"/><path d="M47.848,36.47l-5-8-1.7,1.06L45.2,36H42v2h5a1,1,0,0,0,.848-1.53Z"/><rect x="38" y="36" width="2" height="2"/></g></svg>
